<?xml version="1.0" encoding="UTF-8"?>
<svg version="1.1" viewBox="-1200 -1200 2400 2400" xml:space="preserve" xmlns="http://www.w3.org/2000/svg"><defs><mask id="c"><path d="m-1200-1200h2400v2400h-2400z" fill="#fff"/><circle r="925"/><path d="m-306-861 36-185h540l36 185"/><path transform="rotate(120)" d="m-306-861 36-185h540l36 185"/><path transform="rotate(240)" d="m-306-861 36-185h540l36 185"/></mask></defs><path transform="translate(-1200,-1200)" d="m927.78 150.59c-10.264 38.955-15.829 79.394-24.275 118.91-4.2781 17.442-5.4821 36.749-11.511 53.168-38.755 15.951-78.137 30.945-115.19 50.823-107.07 54.532-202.78 130.46-281.02 221.58-151.59 174.21-233.09 407.17-223.54 637.89 1.0052 46.21 6.8068 92.133 14.082 137.69-4.1459 9.1055-15.801 14.567-22.705 22.287-34.454 30.71-70.051 60.831-104.2 91.397-2.5875 12.104 8.5978 22.665 12.684 33.414 83.415 147.46 168.59 293.93 253.66 440.42 10.668 5.265 22.963-6.0948 34.228-7.7228 44.347-15.166 88.468-31.066 133.17-45.133 34.669 24.505 66.842 52.618 103.12 74.938 140.18 90.919 305.59 142.04 472.41 148.19 73.237 0.3583 146.85-3.1371 218.59-18.87 151.1-30.632 293.55-100.91 411.84-199.51 9.0235-10.196 21.268 1.6055 31.75 2.9375 46.578 14.987 92.791 32.926 139.49 47.033 10.067-6.3142 13.659-20.981 20.904-30.76 80.526-140.18 162.7-279.43 241.54-420.56 4.3146-9.0939 15.45-23.447 1.7002-30.376-40.148-35.476-81.491-69.918-120.93-106.01 5.3274-37.124 11.642-74.36 13.019-112 6.7315-117.07-6.2859-235.61-43.274-347.12-42.732-131.64-115.22-253.9-211.23-353.65-63.715-65.577-135.23-124.08-215.65-168.04-47.141-27.087-97.151-48.71-147.71-68.398-5.8694-8.1464-4.6461-20.871-7.7944-30.739-9.2645-46.504-17.637-93.187-27.522-139.56-8.4536-8.3279-23.673-1.6914-34.856-3.8125h-507.13l-1.8341 0.79752zm271.22 405.45c43.489-0.50918 86.177 0.56638 128.7 10.736 108.57 21.663 212.12 72.394 295.62 145.67 46.92 43.386 91.379 89.855 124.25 145.02 76.719 121.53 110.26 268.82 94.538 411.65-15.752 151.09-86.628 295.12-197.61 399.05-108.53 104.58-255.68 168.73-405.84 175.88-64.29 2.5372-129.31 0.058-191.73-16.557-143.11-34.398-273.86-120.51-362.47-238.66-94.997-123.76-141.21-284.47-128.25-440.28 12.866-173.03 99.648-338.54 234.39-448.05 96.795-79.419 217.54-130.38 342.17-142.91 21.928-1.4964 44.085-1.4766 66.234-1.543z" fill="#fff" stroke="#000" stroke-width="15"/><path id="b" d="m40-345v-455h93.5l-133.5-259-133.5 259h93.5v455"/><path d="m282.98 206.25 394.04 227.5-46.75 80.973 291.05 13.886-157.55-245.11-46.75 80.973-394.04-227.5"/><path d="m-325.96 136.97-394.04 227.5-46.75-80.973-157.55 245.11 291.05-13.886-46.75-80.973 394.04-227.5"/><path transform="translate(-1200,-1200)" d="m1185.5 669.1c-83.78-2.8345-165.96 23.512-239.52 61.883-168.38 92.328-285.01 279.09-278.23 473.05-4.1774 204.02 128.21 397.52 311.77 481.58 73.571 33.377 155.34 52.485 236.34 45.288 58.668-0.5447 117.1-9.3351 171.6-31.744 211.23-76.611 359.43-299.27 344.83-524.12-6.5491-214.04-158.4-412.82-360.93-480.28-59.669-22.986-122.51-27.453-185.86-25.662z" fill="#fff" stroke="#fff"/><g mask="url(#c)"><path d="M 984,0 A 984,984 0 0 1 0,984 984,984 0 0 1 -984,0 984,984 0 0 1 0,-984 984,984 0 0 1 984,0 Z"/><path id="a" d="m-359-913 36-185h646l36 185"/><path d="m970.18 145.6 142.21 123.68-323 559.45-178.21-61.323"/><path d="m-611.18 767.4-178.21 61.323-323-559.45 142.21-123.68"/></g><g fill="none" stroke="#000"><path d="M 590.5,0 A 590.5,590.5 0 0 1 0,590.5 590.5,590.5 0 0 1 -590.5,0 590.5,590.5 0 0 1 0,-590.5 590.5,590.5 0 0 1 590.5,0 Z" stroke-width="119"/><path d="m-352.21 204.5 352.21-212.35 360 207.85-360-207.85v-432.15m0 0 360 207.85v432.15l-360 207.85-352.21-203.35v-444.5z" stroke-width="15"/><path d="m80 40v-360l200 115.47v358.34" stroke-width="15"/></g><path transform="translate(-1.6234e-5 -1.6941e-5)" d="m200-80c7.3646-7.3646 22.302-4.3816 33.342 6.6584 11.04 11.04 14.023 25.977 6.6584 33.342-7.3646 7.3646-22.302 4.3816-33.342-6.6584-11.04-11.04-14.023-25.977-6.6584-33.342z"/><path d="m-80 38.342v-358.34l-207.85 120v365.7" fill="none" stroke="#000" stroke-width="15"/><path transform="translate(-84.041 75.959)" d="m-120-160c7.3646 7.3646 4.3816 22.302-6.6584 33.342-11.04 11.04-25.977 14.023-33.342 6.6584-7.3646-7.3646-4.3816-22.302 6.6584-33.342 11.04-11.04 25.977-14.023 33.342-6.6584z"/></svg>
