<?xml version="1.0" encoding="UTF-8" standalone="no"?>
<svg
   version="1.1"
   viewBox="-1200 -1200 2400 2400"
   id="svg64"
   sodipodi:docname="cbre-ex-inkscape.svg"
   inkscape:version="1.3.2 (091e20e, 2023-11-25, custom)"
   xml:space="preserve"
   inkscape:export-filename="CBRE-EX ICON\cbre-ex.svg"
   inkscape:export-xdpi="94.43"
   inkscape:export-ydpi="94.43"
   xmlns:inkscape="http://www.inkscape.org/namespaces/inkscape"
   xmlns:sodipodi="http://sodipodi.sourceforge.net/DTD/sodipodi-0.dtd"
   xmlns="http://www.w3.org/2000/svg"
   xmlns:svg="http://www.w3.org/2000/svg"><sodipodi:namedview
     id="namedview66"
     pagecolor="#505050"
     bordercolor="#eeeeee"
     borderopacity="1"
     inkscape:showpageshadow="0"
     inkscape:pageopacity="0"
     inkscape:pagecheckerboard="0"
     inkscape:deskcolor="#505050"
     showgrid="false"
     inkscape:zoom="0.22"
     inkscape:cx="845.45455"
     inkscape:cy="1393.1818"
     inkscape:window-width="1920"
     inkscape:window-height="1009"
     inkscape:window-x="-8"
     inkscape:window-y="-8"
     inkscape:window-maximized="1"
     inkscape:current-layer="svg64"
     showguides="true"
     inkscape:lockguides="false"><inkscape:grid
       type="xygrid"
       id="grid565"
       originx="0"
       originy="0"
       spacingy="1"
       spacingx="1"
       units="px"
       visible="false" /></sodipodi:namedview><defs
     id="defs46"><inkscape:path-effect
       effect="skeletal"
       id="path-effect1834"
       is_visible="true"
       lpeversion="1"
       pattern="M 0,18.867925 C 0,8.4528302 8.4528302,0 18.867925,0 c 10.415094,0 18.867924,8.4528302 18.867924,18.867925 0,10.415094 -8.45283,18.867924 -18.867924,18.867924 C 8.4528302,37.735849 0,29.283019 0,18.867925 Z"
       copytype="single_stretched"
       prop_scale="1"
       scale_y_rel="false"
       spacing="0"
       normal_offset="0"
       tang_offset="0"
       prop_units="false"
       vertical_pattern="false"
       hide_knot="false"
       fuse_tolerance="0" /><inkscape:path-effect
       effect="spiro"
       id="path-effect1832"
       is_visible="true"
       lpeversion="1" /><inkscape:path-effect
       effect="skeletal"
       id="path-effect1733"
       is_visible="true"
       lpeversion="1"
       pattern="M 0,18.867925 C 0,8.4528302 8.4528302,0 18.867925,0 c 10.415094,0 18.867924,8.4528302 18.867924,18.867925 0,10.415094 -8.45283,18.867924 -18.867924,18.867924 C 8.4528302,37.735849 0,29.283019 0,18.867925 Z"
       copytype="single_stretched"
       prop_scale="1"
       scale_y_rel="false"
       spacing="0"
       normal_offset="0"
       tang_offset="0"
       prop_units="false"
       vertical_pattern="false"
       hide_knot="false"
       fuse_tolerance="0" /><inkscape:path-effect
       effect="spiro"
       id="path-effect1731"
       is_visible="true"
       lpeversion="1" /><mask
       id="c"><path
         d="m-1200-1200h2400v2400h-2400z"
         fill="#fff"
         id="path35" /><circle
         r="925"
         id="circle37" /><path
         d="m-306-861 36-185h540l36 185"
         id="path39" /><path
         transform="rotate(120)"
         d="m-306-861 36-185h540l36 185"
         id="path41" /><path
         transform="rotate(240)"
         d="m-306-861 36-185h540l36 185"
         id="path43" /></mask></defs><path
     style="fill:#ffffff;stroke:#000000;stroke-width:15"
     d="m -272.22266,-992.41016 c -10.26408,38.95529 -15.82904,79.39366 -24.27452,118.90595 -4.27812,17.44166 -5.48206,36.749 -11.51064,53.16827 -38.7552,15.95113 -78.13732,30.94544 -115.19298,50.82262 -107.06522,54.5317 -202.77502,130.46488 -281.02432,221.58302 -151.59192,174.21358 -233.09404,407.17 -223.54094,637.8901 1.00525,46.2095 6.80676,92.1328 14.08247,137.6925 -4.14593,9.1055 -15.80107,14.567 -22.70519,22.2866 -34.4543,30.7102 -70.05112,60.8313 -104.20102,91.397 -2.5876,12.1037 8.5977,22.6654 12.6835,33.4141 83.41487,147.4562 168.58767,293.9258 253.66412,440.4219 10.66828,5.265 22.96256,-6.0948 34.22752,-7.7228 44.34686,-15.1657 88.46836,-31.0658 133.17482,-45.1327 34.66856,24.5054 66.84242,52.6178 103.125,74.9375 140.18286,90.9186 305.59254,142.0424 472.40944,148.1863 73.2368,0.3583 146.8495,-3.1371 218.5906,-18.8699 151.1024,-30.6316 293.5524,-100.9081 411.8398,-199.5078 9.0235,-10.196 21.268,1.6055 31.75,2.9375 46.5779,14.9869 92.7909,32.9264 139.4862,47.0326 10.0668,-6.3142 13.6586,-20.9807 20.904,-30.7603 80.5264,-140.1751 162.6965,-279.4277 241.5434,-420.5575 4.3146,-9.0939 15.4504,-23.4467 1.7002,-30.3759 -40.1484,-35.4764 -81.491,-69.918 -120.9307,-106.0069 5.3274,-37.124 11.642,-74.3603 13.0191,-111.9972 6.7315,-117.0725 -6.2859,-235.6131 -43.2741,-347.12484 -42.7317,-131.63668 -115.2212,-253.90272 -211.23,-353.65474 -63.7154,-65.57684 -135.2258,-124.08112 -215.6467,-168.04422 -47.1408,-27.08702 -97.1508,-48.70981 -147.7081,-68.39772 -5.8694,-8.14637 -4.6461,-20.87104 -7.7944,-30.73902 -9.2645,-46.50369 -17.6374,-93.18704 -27.522,-139.56176 -8.4536,-8.3279 -23.6732,-1.69143 -34.8555,-3.8125 -169.0443,0 -338.0885,0 -507.1328,0 l -1.83412,0.79752 z M -1,-586.96484 c 43.4892,-0.50918 86.1773,0.56638 128.6972,10.7355 108.569,21.66282 212.1158,72.3935 295.6189,145.67444 46.9202,43.38632 91.379,89.85498 124.2508,145.02402 76.7186,121.5332 110.26,268.81568 94.5375,411.64738 C 626.3527,277.2026 555.4769,421.2401 444.4977,525.1618 335.969,629.7412 188.8205,693.8905 38.6562,701.0391 -25.6339,703.5763 -90.6492,701.0971 -153.0786,684.4824 -296.18612,650.0841 -426.9383,563.9702 -515.54748,445.8257 -610.54442,322.0685 -656.76042,161.353 -643.79688,5.5469 c 12.86638,-173.03482 99.6481,-338.5409 234.39252,-448.05454 96.79542,-79.419 217.54236,-130.3824 342.16996,-142.91424 21.9285,-1.49642 44.0854,-1.47664 66.2344,-1.54296 z"
     id="path4839"
     inkscape:label="outerCircleBackground" /><path
     id="b"
     d="m 40,-288 v -455 h 93.5 L 0,-1002 -133.5,-743 H -40 v 455"
     style="display:inline"
     inkscape:label="arrowTop" /><path
     id="use60"
     d="m 282.97922,263.25 394.04156,227.5 -46.75,80.97338 291.05058,13.88561 -157.55058,-245.11439 -46.75,80.97337 -394.04156,-227.5"
     style="display:inline"
     inkscape:label="arrowBottomRight" /><path
     id="use62"
     d="M -325.95845,193.96797 -720,421.46797 -766.75,340.4946 -924.30058,585.60899 -633.25,571.72338 -680,490.75 -285.95845,263.25"
     style="display:inline"
     inkscape:label="arrowBottomLeft" /><path
     style="display:inline;fill:#ffffff;stroke:#ffffff;stroke-width:1"
     d="m -14.5,-473.89844 c -83.7797,-2.83451 -165.9618,23.51205 -239.51562,61.88282 -168.38357,92.32818 -285.01076,279.09412 -278.22795,473.04682 -4.17738,204.0162 128.21238,397.5222 311.77403,481.5834 73.57084,33.3772 155.33554,52.4849 236.33664,45.2875 58.6683,-0.5447 117.0956,-9.3351 171.5977,-31.7444 C 398.6969,479.5468 546.8964,256.8858 532.2922,32.0417 525.7431,-181.99874 373.8908,-380.77515 171.3599,-448.23597 111.6911,-471.22172 48.8507,-475.68884 -14.5,-473.89844 Z"
     id="path747"
     inkscape:label="innerCircleBackground" /><g
     mask="url(#c)"
     id="g55"
     inkscape:label="outerBorder"
     transform="translate(0,57)"><path
       id="circle48"
       style="display:inline"
       d="M 984,0 A 984,984 0 0 1 0,984 984,984 0 0 1 -984,0 984,984 0 0 1 0,-984 984,984 0 0 1 984,0 Z" /><path
       id="a"
       d="m -359,-913 36,-185 h 646 l 36,185"
       style="display:inline" /><path
       id="use51"
       d="M 970.18119,145.59688 1112.3959,269.27379 789.39589,828.72621 611.18119,767.40312"
       style="display:inline" /><path
       id="use53"
       d="m -611.18119,767.40312 -178.2147,61.32309 -323.00001,-559.45242 142.21471,-123.67691"
       style="display:inline" /></g><path
     id="circle57"
     style="display:inline;fill:none;stroke:#000000;stroke-width:119"
     d="M 590.5,57 A 590.5,590.5 0 0 1 0,647.5 590.5,590.5 0 0 1 -590.5,57 590.5,590.5 0 0 1 0,-533.5 590.5,590.5 0 0 1 590.5,57 Z"
     inkscape:label="innerCircle" /><path
     id="path1640"
     style="display:inline;fill:none;stroke:#000000;stroke-width:15;stroke-dasharray:none"
     d="M -352.20758,261.499 0,49.1539 360,257 0,49.1539 V -383 m 0,0 360,207.8461 V 257 L 0,464.8461 -352.20758,261.499 V -183 Z"
     inkscape:label="roomOutline"
     sodipodi:nodetypes="cccccccccccc" /><path
     style="display:inline;fill:none;stroke:#000000;stroke-width:15;stroke-dasharray:none"
     d="m 80,97 v -360 l 200,115.47005 V 210.812"
     id="path1670"
     inkscape:label="doorFrameRight" /><path
     style="display:inline;fill:#000000;stroke:none;stroke-width:15;stroke-dasharray:none"
     d="m 199.99998,-23.000017 c 7.36458,-7.364584 22.30164,-4.381634 33.34165,6.658371 C 244.38163,-5.3016409 247.36458,9.6354161 240,17 c -7.36459,7.364584 -22.30164,4.381633 -33.34165,-6.658371 -11.04,-11.04000494 -14.02295,-25.977062 -6.65837,-33.341646 z"
     id="path1729"
     inkscape:label="doorHandleRight" /><path
     style="display:inline;fill:none;stroke:#000000;stroke-width:15;stroke-dasharray:none"
     d="M -80,95.3419 V -263 l -207.8461,120 v 365.69562"
     id="path1783"
     inkscape:label="doorFrameLeft"
     sodipodi:nodetypes="cccc" /><path
     style="display:inline;fill:#000000;stroke:none;stroke-width:15;stroke-dasharray:none"
     d="m -204.04101,-27.041027 c 7.36458,7.36458 4.38163,22.30164 -6.65837,33.34165 -11.04001,11.04 -25.97706,14.02295 -33.34165,6.65837 -7.36458,-7.36459 -4.38163,-22.30164 6.65837,-33.34165 11.04001,-11.04 25.97707,-14.02295 33.34165,-6.65837 z"
     id="path1830"
     inkscape:label="doorHandleLeft" /></svg>
