<?xml version="1.0" encoding="UTF-8" standalone="no"?>
<svg
   version="1.1"
   viewBox="-1200 -1200 2400 2400"
   id="svg64"
   sodipodi:docname="cbre-ex-inkscape.svg"
   inkscape:version="1.2.1 (9c6d41e410, 2022-07-14)"
   xml:space="preserve"
   inkscape:export-filename="CBRE-EX ICON\cbre-ex.svg"
   inkscape:export-xdpi="94.43"
   inkscape:export-ydpi="94.43"
   xmlns:inkscape="http://www.inkscape.org/namespaces/inkscape"
   xmlns:sodipodi="http://sodipodi.sourceforge.net/DTD/sodipodi-0.dtd"
   xmlns="http://www.w3.org/2000/svg"
   xmlns:svg="http://www.w3.org/2000/svg"><sodipodi:namedview
     id="namedview66"
     pagecolor="#505050"
     bordercolor="#eeeeee"
     borderopacity="1"
     inkscape:showpageshadow="0"
     inkscape:pageopacity="0"
     inkscape:pagecheckerboard="0"
     inkscape:deskcolor="#505050"
     showgrid="false"
     inkscape:zoom="0.44"
     inkscape:cx="1260.2273"
     inkscape:cy="1318.1818"
     inkscape:window-width="1920"
     inkscape:window-height="1009"
     inkscape:window-x="-8"
     inkscape:window-y="-8"
     inkscape:window-maximized="1"
     inkscape:current-layer="svg64"
     showguides="true"
     inkscape:lockguides="false"><inkscape:grid
       type="xygrid"
       id="grid565" /></sodipodi:namedview><defs
     id="defs46"><inkscape:path-effect
       effect="skeletal"
       id="path-effect1834"
       is_visible="true"
       lpeversion="1"
       pattern="M 0,18.867925 C 0,8.4528302 8.4528302,0 18.867925,0 c 10.415094,0 18.867924,8.4528302 18.867924,18.867925 0,10.415094 -8.45283,18.867924 -18.867924,18.867924 C 8.4528302,37.735849 0,29.283019 0,18.867925 Z"
       copytype="single_stretched"
       prop_scale="1"
       scale_y_rel="false"
       spacing="0"
       normal_offset="0"
       tang_offset="0"
       prop_units="false"
       vertical_pattern="false"
       hide_knot="false"
       fuse_tolerance="0" /><inkscape:path-effect
       effect="spiro"
       id="path-effect1832"
       is_visible="true"
       lpeversion="1" /><inkscape:path-effect
       effect="skeletal"
       id="path-effect1733"
       is_visible="true"
       lpeversion="1"
       pattern="M 0,18.867925 C 0,8.4528302 8.4528302,0 18.867925,0 c 10.415094,0 18.867924,8.4528302 18.867924,18.867925 0,10.415094 -8.45283,18.867924 -18.867924,18.867924 C 8.4528302,37.735849 0,29.283019 0,18.867925 Z"
       copytype="single_stretched"
       prop_scale="1"
       scale_y_rel="false"
       spacing="0"
       normal_offset="0"
       tang_offset="0"
       prop_units="false"
       vertical_pattern="false"
       hide_knot="false"
       fuse_tolerance="0" /><inkscape:path-effect
       effect="spiro"
       id="path-effect1731"
       is_visible="true"
       lpeversion="1" /><mask
       id="c"><path
         d="m-1200-1200h2400v2400h-2400z"
         fill="#fff"
         id="path35" /><circle
         r="925"
         id="circle37" /><path
         d="m-306-861 36-185h540l36 185"
         id="path39" /><path
         transform="rotate(120)"
         d="m-306-861 36-185h540l36 185"
         id="path41" /><path
         transform="rotate(240)"
         d="m-306-861 36-185h540l36 185"
         id="path43" /></mask></defs><path
     style="fill:#ffffff;stroke:#000000;stroke-width:15"
     d="m 927.77734,150.58984 c -10.26408,38.95529 -15.82904,79.39366 -24.27452,118.90595 -4.27812,17.44166 -5.48206,36.749 -11.51064,53.16827 -38.7552,15.95113 -78.13732,30.94544 -115.19298,50.82262 -107.06522,54.5317 -202.77502,130.46488 -281.02432,221.58302 -151.59192,174.21358 -233.09404,407.17 -223.54094,637.8901 1.00525,46.2095 6.80676,92.1328 14.08247,137.6925 -4.14593,9.1055 -15.80107,14.567 -22.70519,22.2866 -34.4543,30.7102 -70.05113,60.8313 -104.20106,91.397 -2.58753,12.1037 8.59776,22.6654 12.68359,33.4141 83.41482,147.4562 168.58762,293.9258 253.66407,440.4219 10.66828,5.265 22.96256,-6.0948 34.22752,-7.7228 44.34686,-15.1657 88.46836,-31.0658 133.17482,-45.1327 34.66856,24.5054 66.84242,52.6178 103.125,74.9375 140.18286,90.9186 305.59254,142.0424 472.40944,148.1863 73.2368,0.3583 146.8495,-3.1371 218.5906,-18.8699 151.1024,-30.6316 293.5524,-100.9081 411.8398,-199.5078 9.0235,-10.196 21.268,1.6055 31.75,2.9375 46.5779,14.9869 92.7909,32.9264 139.4862,47.0326 10.0668,-6.3142 13.6586,-20.9807 20.904,-30.7603 80.5264,-140.1751 162.6965,-279.4277 241.5434,-420.5575 4.3146,-9.0939 15.4504,-23.4467 1.7002,-30.3759 -40.1484,-35.4764 -81.491,-69.918 -120.9307,-106.0069 5.3274,-37.124 11.642,-74.3603 13.0191,-111.9972 6.7315,-117.0725 -6.2859,-235.6131 -43.2741,-347.12484 -42.7317,-131.63668 -115.2212,-253.90272 -211.23,-353.65474 -63.7154,-65.57684 -135.2258,-124.08112 -215.6467,-168.04422 -47.1408,-27.08702 -97.1508,-48.70981 -147.7081,-68.39772 -5.8694,-8.14637 -4.6461,-20.87104 -7.7944,-30.73902 -9.2645,-46.50369 -17.6374,-93.18704 -27.522,-139.56176 -8.4536,-8.3279 -23.6732,-1.69143 -34.8555,-3.8125 -169.0443,0 -338.0885,0 -507.1328,0 l -1.83412,0.79752 z M 1199,556.03516 c 43.4892,-0.50918 86.1773,0.56638 128.6972,10.7355 108.569,21.66282 212.1158,72.3935 295.6189,145.67444 46.9202,43.38632 91.379,89.85498 124.2508,145.02402 76.7186,121.5332 110.26,268.81568 94.5375,411.64738 -15.7517,151.0861 -86.6275,295.1236 -197.6067,399.0453 -108.5287,104.5794 -255.6772,168.7287 -405.8415,175.8773 -64.2901,2.5372 -129.3054,0.058 -191.7348,-16.5567 C 903.81388,1793.0841 773.0617,1706.9702 684.45252,1588.8257 589.45558,1465.0685 543.23958,1304.353 556.20312,1148.5469 569.0695,975.51208 655.85122,810.006 790.59564,700.49236 c 96.79542,-79.419 217.54236,-130.3824 342.16996,-142.91424 21.9285,-1.49642 44.0854,-1.47664 66.2344,-1.54296 z"
     id="path4839"
     transform="translate(-1200,-1200)"
     inkscape:label="outerCircleBackground" /><path
     id="b"
     d="m 40,-345 v -455 h 93.5 L 0,-1059 -133.5,-800 H -40 v 455"
     style="display:inline"
     inkscape:label="arrowTop" /><path
     id="use60"
     d="m 282.97922,206.25 394.04156,227.5 -46.75,80.97338 291.05058,13.88561 -157.55058,-245.11439 -46.75,80.97337 -394.04156,-227.5"
     style="display:inline"
     inkscape:label="arrowBottomRight" /><path
     id="use62"
     d="M -325.95845,136.96797 -720,364.46797 -766.75,283.4946 -924.30058,528.60899 -633.25,514.72338 -680,433.75 -285.95845,206.25"
     style="display:inline"
     inkscape:label="arrowBottomLeft" /><path
     style="display:inline;fill:#ffffff;stroke:#ffffff;stroke-width:1"
     d="m 1185.5,669.10156 c -83.7797,-2.83451 -165.9618,23.51205 -239.51562,61.88282 -168.38357,92.32818 -285.01076,279.09412 -278.22795,473.04682 -4.17738,204.0162 128.21238,397.5222 311.77403,481.5834 73.57084,33.3772 155.33554,52.4849 236.33664,45.2875 58.6683,-0.5447 117.0956,-9.3351 171.5977,-31.7444 211.2321,-76.6109 359.4316,-299.2719 344.8274,-524.116 C 1725.7431,961.00126 1573.8908,762.22485 1371.3599,694.76403 1311.6911,671.77828 1248.8507,667.31116 1185.5,669.10156 Z"
     id="path747"
     inkscape:label="innerCircleBackground"
     transform="translate(-1200,-1200)" /><g
     mask="url(#c)"
     id="g55"
     inkscape:label="outerBorder"><path
       id="circle48"
       style="display:inline"
       d="M 984,0 A 984,984 0 0 1 0,984 984,984 0 0 1 -984,0 984,984 0 0 1 0,-984 984,984 0 0 1 984,0 Z" /><path
       id="a"
       d="m -359,-913 36,-185 h 646 l 36,185"
       style="display:inline" /><path
       id="use51"
       d="M 970.18119,145.59688 1112.3959,269.27379 789.39589,828.72621 611.18119,767.40312"
       style="display:inline" /><path
       id="use53"
       d="m -611.18119,767.40312 -178.2147,61.32309 -323.00001,-559.45242 142.21471,-123.67691"
       style="display:inline" /></g><path
     id="circle57"
     style="display:inline;fill:none;stroke:#000000;stroke-width:119"
     d="M 590.5,0 A 590.5,590.5 0 0 1 0,590.5 590.5,590.5 0 0 1 -590.5,0 590.5,590.5 0 0 1 0,-590.5 590.5,590.5 0 0 1 590.5,0 Z"
     inkscape:label="innerCircle" /><path
     id="path1640"
     style="display:inline;fill:none;stroke:#000000;stroke-width:15;stroke-dasharray:none"
     d="M -352.20758,204.499 0,-7.8461 360,200 0,-7.8461 V -440 m 0,0 360,207.8461 V 200 L 0,407.8461 -352.20758,204.499 V -240 Z"
     inkscape:label="roomOutline"
     sodipodi:nodetypes="cccccccccccc" /><path
     style="display:inline;fill:none;stroke:#000000;stroke-width:15;stroke-dasharray:none"
     d="m 80,40 v -360 l 200,115.47005 V 153.812"
     id="path1670"
     inkscape:label="doorFrameRight" /><path
     style="display:inline;fill:#000000;stroke:none;stroke-width:15;stroke-dasharray:none"
     d="m 200,-80 c 7.36458,-7.364584 22.30164,-4.381634 33.34165,6.658371 11.04,11.040005 14.02295,25.977062 6.65837,33.341646 -7.36459,7.364584 -22.30164,4.381633 -33.34165,-6.658371 C 195.61837,-57.698359 192.63542,-72.635416 200,-80 Z"
     id="path1729"
     transform="translate(-1.6233729e-5,-1.6940835e-5)"
     inkscape:label="doorHandleRight" /><path
     style="display:inline;fill:none;stroke:#000000;stroke-width:15;stroke-dasharray:none"
     d="M -80,38.3419 V -320 l -207.8461,120 v 365.69562"
     id="path1783"
     inkscape:label="doorFrameLeft"
     sodipodi:nodetypes="cccc" /><path
     style="display:inline;fill:#000000;stroke:none;stroke-width:15;stroke-dasharray:none"
     d="m -120,-160 c 7.36458,7.36458 4.38163,22.30164 -6.65837,33.34165 -11.04001,11.04 -25.97706,14.02295 -33.34165,6.65837 -7.36458,-7.36459 -4.38163,-22.30164 6.65837,-33.34165 11.04001,-11.04 25.97707,-14.02295 33.34165,-6.65837 z"
     id="path1830"
     transform="translate(-84.04101,75.958973)"
     inkscape:label="doorHandleLeft" /></svg>
