<?xml version="1.0" encoding="UTF-8"?>
<svg width="5.76e6" height="5.76e6" version="1.1" viewBox="-1200 -1200 5.76e6 5.76e6" xml:space="preserve" xmlns="http://www.w3.org/2000/svg" xmlns:xlink="http://www.w3.org/1999/xlink"><defs><mask id="b"><path d="m-1200-1200h2400v2400h-2400z" fill="#fff"/><circle r="925"/><path d="m-306-861 36-185h540l36 185"/><path transform="rotate(120)" d="m-306-861 36-185h540l36 185"/><path transform="rotate(240)" d="m-306-861 36-185h540l36 185"/></mask></defs><path d="m0-1044c-251.28 0-267.58 0.4235-269.5 7-1.1228 3.85-8.7424 42.309-16.932 85.465l-14.889 78.467-42.34 16.959c-278.47 111.55-491.85 361.41-556.09 651.17-23.522 106.09-29.028 230.72-14.582 330.06 4.0885 28.115 6.7367 51.651 5.8848 52.303-13.409 10.259-127.55 111.63-127.55 113.28 0 5.5983 265.31 461.3 268.57 461.3 2.0085 0 38.967-12.011 82.129-26.691 71.484-24.313 79.271-26.184 87.373-21 4.8923 3.1304 25.779 18.478 46.414 34.106 79.267 60.032 167.26 105.9 265.52 138.4 68.851 22.774 133.13 35.415 228 44.84 31.559 3.1353 142.19-1.5354 184.68-7.7968 168.27-24.796 321.13-90.299 447.03-191.56 15.242-12.26 30.062-22.291 32.932-22.291s39.479 11.7 81.356 26 77.712 26 79.635 26c3.2113 0 268.37-455.77 268.37-461.29 0-1.7647-115.4-104.29-127.55-113.33-0.8519-0.6332 1.7963-24.155 5.8847-52.27 14.446-99.341 8.94-223.96-14.582-330.06-64.299-290.01-277.37-539.52-556.09-651.17l-42.34-16.959-14.889-78.467c-8.1893-43.156-15.809-81.615-16.932-85.465-1.9179-6.5765-18.223-7-269.5-7z" fill="#fff" stroke="#fff"/><g mask="url(#b)"><circle r="984"/><path id="a" d="m-359-913 36-185h646l36 185"/><use transform="rotate(120)" xlink:href="#a"/><use transform="rotate(240)" xlink:href="#a"/></g><path d="M 590.5,0 A 590.5,590.5 0 0 1 0,590.5 590.5,590.5 0 0 1 -590.5,0 590.5,590.5 0 0 1 0,-590.5 590.5,590.5 0 0 1 590.5,0 Z" fill="none" stroke="#000" stroke-width="119"/><path d="m40-345v-455h93.5l-133.5-259-133.5 259h93.5v455"/><path d="m282.98 206.25 394.04 227.5-46.75 80.973 291.05 13.886-157.55-245.11-46.75 80.973-394.04-227.5"/><path d="m-325.96 136.97-394.04 227.5-46.75-80.973-157.55 245.11 291.05-13.886-46.75-80.973 394.04-227.5"/><path d="m-14.5-530.9c-83.78-2.8345-165.96 23.512-239.52 61.883-168.38 92.328-285.01 279.09-278.23 473.05-4.1774 204.02 128.21 397.52 311.77 481.58 73.571 33.377 155.34 52.485 236.34 45.288 58.668-0.5447 117.1-9.3351 171.6-31.744 211.23-76.611 359.43-299.27 344.83-524.12-6.5491-214.04-158.4-412.82-360.93-480.28-59.669-22.986-122.51-27.453-185.86-25.662z" fill="#fff" stroke="#fff"/><path d="m-352.21 204.5 352.21-212.35 360 207.85-360-207.85v-432.15m0 0 360 207.85v432.15l-360 207.85-352.21-203.35v-444.5z" fill="none" stroke="#000" stroke-width="15"/><path d="m80 40v-360l200 115.47v358.34" fill="none" stroke="#000" stroke-width="15"/><path class="UnoptimicedTransforms" transform="translate(-1.6234e-5 -1.6941e-5)" d="m200-80c7.3646-7.3646 22.302-4.3816 33.342 6.6584 11.04 11.04 14.023 25.977 6.6584 33.342-7.3646 7.3646-22.302 4.3816-33.342-6.6584-11.04-11.04-14.023-25.977-6.6584-33.342z"/><path d="m-80 38.342v-358.34l-207.85 120v365.7" fill="none" stroke="#000" stroke-width="15"/><path class="UnoptimicedTransforms" transform="translate(-84.041 75.959)" d="m-120-160c7.3646 7.3646 4.3816 22.302-6.6584 33.342-11.04 11.04-25.977 14.023-33.342 6.6584-7.3646-7.3646-4.3816-22.302 6.6584-33.342 11.04-11.04 25.977-14.023 33.342-6.6584z"/></svg>
